<?xml version="1.0" encoding="UTF-8"?>
<!DOCTYPE svg PUBLIC "-//W3C//DTD SVG 1.1//EN" "http://www.w3.org/Graphics/SVG/1.1/DTD/svg11.dtd">
<!-- Creator: CorelDRAW 2020 (64-Bit) -->
<svg xmlns="http://www.w3.org/2000/svg" xml:space="preserve" width="88.5258mm" height="46.8296mm" version="1.1" style="shape-rendering:geometricPrecision; text-rendering:geometricPrecision; image-rendering:optimizeQuality; fill-rule:evenodd; clip-rule:evenodd"
viewBox="0 0 8852.56 4682.95"
 xmlns:xlink="http://www.w3.org/1999/xlink"
 xmlns:xodm="http://www.corel.com/coreldraw/odm/2003">
 <defs>
  <style type="text/css">
   <![CDATA[
    .fil3 {fill:#727271}
    .fil2 {fill:url(#id0)}
    .fil0 {fill:url(#id1)}
    .fil4 {fill:url(#id2)}
    .fil1 {fill:url(#id3)}
   ]]>
  </style>
  <linearGradient id="id0" gradientUnits="userSpaceOnUse" x1="1555.75" y1="4682.92" x2="1556.93" y2="-642.95">
   <stop offset="0" style="stop-opacity:1; stop-color:#EF7F1A"/>
   <stop offset="1" style="stop-opacity:1; stop-color:#FEFEFE"/>
  </linearGradient>
  <linearGradient id="id1" gradientUnits="userSpaceOnUse" xlink:href="#id0" x1="5398.16" y1="4682.92" x2="5400.36" y2="-3008.45">
  </linearGradient>
  <linearGradient id="id2" gradientUnits="userSpaceOnUse" xlink:href="#id0" x1="7979.82" y1="1458.58" x2="7980.34" y2="-186.21">
  </linearGradient>
  <linearGradient id="id3" gradientUnits="userSpaceOnUse" xlink:href="#id0" x1="3484.76" y1="4682.91" x2="3487.41" y2="-4146.01">
  </linearGradient>
 </defs>
 <g id="Layer_x0020_1">
  <metadata id="CorelCorpID_0Corel-Layer"/>
  <g id="_2904944506608">
   <path class="fil0" d="M6261.98 4682.94l-862.7 0 426.88 -1644.59 240.67 -112.22c28.55,-13.31 57.09,-26.63 85.45,-40.34l2.63 -1.31c31.63,-16.08 63.47,-31.78 95.1,-47.87l20.84 -10.6 0.35 -0.34c132.9,-67.44 265.83,-134.82 394.53,-210.09 169.72,-91.52 331.15,-196.59 495.04,-297.88l2.38 -1.5c81.45,-52.51 160.4,-108.63 240.12,-163.69l3.21 -2.21 -530.92 2045.38c-69.56,268.01 -345.68,487.26 -613.58,487.26zm-307.28 -2139.8l377.02 -1452.5c69.57,-268.02 345.68,-487.26 613.59,-487.26l862.7 0 -224.23 863.86c-33.22,28.16 -66.63,56.09 -100.21,83.81 -347.3,286.64 -722.73,559.71 -1117.16,778.73l-27.69 15.16c-27.04,14.8 -54.15,29.46 -81.34,43.97l-282.21 143.71c-4.81,2.44 -9.55,4.81 -14.22,7.36l-6.25 3.16z"/>
   <path class="fil1" d="M4348.78 4682.94l-862.7 0 262.7 -961.36 52.17 -16.63 79.63 -18.63 0.43 -1.6 318.85 -79.94 335.03 -95.68 138.33 -41.33c46.93,-14.02 93.13,-30.15 139.58,-45.66 91.52,-30.56 183.7,-58.96 274.24,-92.4l131.94 -48.74 -249.94 914.67c-73.28,268.17 -352.35,487.3 -620.26,487.3zm-494.11 -1348.85l777.89 -2846.78c73.28,-268.17 352.35,-487.3 620.26,-487.3l862.7 0 -772.77 2828.03c-29.37,12.64 -58.82,25.12 -88.33,37.42l-66.39 27.69 -0.14 0.48c-45.18,18.16 -90.58,35.79 -135.97,53.38l-53.88 20.9c-187.22,71.65 -376.9,136.79 -567.58,198.59 -173.21,56.14 -348.67,105.06 -523.97,154.16l-1.7 0.48 -1.68 0.52c-3.21,0.97 -6.55,1.78 -9.79,2.68l-38.65 9.75z"/>
   <path class="fil2" d="M2419.02 4682.94l-862.7 0 189.13 -666.21c52.64,-4.16 107.59,-8.7 171.73,-14.28 122.61,-10.63 245.1,-22.8 367.39,-36.7 22.55,-2.57 45.09,-5.23 67.63,-7.87l0.32 0 8.71 -1.04c238.66,-28.51 476.58,-63.27 713.41,-104.33l12.28 -2.12c14.58,-2.45 29.15,-4.99 43.7,-7.58l14.73 -2.55 -100.94 355.55c-76.09,268.04 -357.48,487.13 -625.39,487.13zm-581.3 -991.26l382.25 -1346.49c76.09,-268.05 357.49,-487.14 625.39,-487.14l862.71 0 -459.44 1618.39 -43.02 8.82c-317.85,65.15 -638.18,118.58 -959.96,160.15 -47.82,6.17 -95.71,11.95 -143.6,17.61l-8.6 0.99c-66.07,7.72 -132.18,15.03 -198.34,21.87l-11.51 1.18 -45.88 4.62z"/>
   <path class="fil3" d="M8135.93 1241.5c-1.58,-2.01 -3.14,-4.05 -4.67,-6.1 1.53,2.05 3.09,4.09 4.67,6.1z"/>
   <path class="fil3" d="M8211.84 1313.64c-22.42,-15.8 -42.93,-34.06 -61.11,-54.42 18.18,20.4 38.68,38.67 61.11,54.42z"/>
   <path class="fil3" d="M8682.15 1022.4c0,146.83 -119.02,265.85 -265.84,265.85 -49.14,0 -95.17,-13.37 -134.66,-36.62l-67.71 63.48 0 0 -0.06 -0.03 -0.92 0.92 -58.85 55.08 0 0c-43.35,-32.69 -80.35,-73.15 -108.98,-119.45 19.95,-19 39.84,-38.01 59.66,-57.21l-0.02 -0.05c22.67,-21.93 45.21,-43.98 67.64,-66.17 -14.08,-32.42 -21.9,-68.19 -21.9,-105.8 0,-146.78 119.01,-265.8 265.8,-265.8 146.82,0 265.84,119.02 265.84,265.8zm-7958.54 2885.59c-52.08,0 -104.53,-0.38 -156.61,-1.1 -24.33,-0.38 -48.27,-0.76 -72.6,-1.23l-0.55 -0.61 0.44 0.63c-165.12,-3.2 -330.25,-9.34 -494.29,-22.75 162.96,9.96 326.99,15.72 489.95,17.77l0.02 0.02c45.56,0.52 90.76,0.85 136.33,0.85 208.3,0 416.98,-5.95 624.91,-17.12l-6.64 6.75 6.93 -6.74c175.99,-9.45 351.32,-22.86 527.31,-39.34l-0.02 0.09 1.05 -0.05 0.85 0.01c2.1,-0.25 4.21,-0.28 6.32,-0.58l0.01 0 0.05 0 0.11 -0.02 0.01 0c41.07,-3.91 82.09,-7.95 123.06,-12.17l-0.15 0.6 0.17 -0.61c66.88,-6.92 133.5,-14.29 200.27,-22.08l0.18 0c51.17,-6.03 102.66,-12.3 153.81,-18.83 325.21,-42.09 649.77,-96.16 970.66,-161.93l0.02 -0.06c48.89,-9.98 97.78,-20.32 146.66,-30.93 91.26,-21.09 184.68,-39.88 275.94,-62.89l113.89 -28.72 0.12 -0.03 0.11 -0.03 0.11 -0.03 0.12 -0.03 0.13 -0.03 0.12 -0.03 0.13 -0.04 0.13 -0.03 0.13 -0.04 0.28 -0.07 0.14 -0.04 5.05 -1.31 0.05 -0.22 136.62 -34.14 0.04 -0.13 17.31 -4.37c4.51,-1.24 9.41,-2.5 13.93,-3.88l0.09 -0.02c177.32,-49.67 354.64,-98.09 529.58,-155.86 211.93,-67.62 422.28,-141.37 629.44,-222.27l-0.16 0c67.85,-26.3 138.85,-53.95 205.67,-81.91l0.28 -1.04c74.43,-31.03 148.31,-63.06 221.84,-96.18l129.43 -56.72c42.71,-19.68 84.88,-40.88 127.42,-61.21 33.34,-16.38 68.89,-33.21 102.42,-49.37l0.01 -0.04c46.17,-22.25 92.35,-44.77 137.88,-67.82 2.64,-1.61 9.23,-4.83 11.87,-6.17l-0.06 0.21c123.82,-60.19 246.32,-123.6 367.52,-189.96l-14.57 14.65 14.44 -14.46c407.3,-223.03 808.53,-511.91 1168.02,-809.69 161.02,-131.83 317.02,-269.8 467.82,-412.92 28.58,46.12 65.64,86.71 108.89,119.36l-45.76 42.76 -109.67 92.44 -219.14 184.49 -45.08 34.17 -0.1 0.07 -0.01 0 -182.95 138.88c-11.5,8.75 -23.08,17.54 -34.5,26.35 -4.54,4.27 -10.91,7.14 -15.03,11.71 -21.45,16.17 -42.88,32.65 -64.73,48.21l-117.5 81.16c-79.15,53.69 -156.24,109.53 -236.23,161.09 -162.43,100.38 -321.96,204.42 -489.76,294.73 -133.71,78.33 -272.16,147.85 -409.95,217.79l-0.39 0.39c-28.88,14.69 -66.22,33.18 -95.1,47.88 -27.55,13.32 -55.55,26.38 -83.55,39.43l0.04 -0.14c-47.59,21.98 -95.82,43.97 -144.07,65.96l-0.43 0.2 -0.45 0.2 -0.44 0.2c-9.18,4.18 -20.94,9.54 -29.84,13.71 -43.28,19.68 -86.36,40.01 -129.99,58.91l-131.64 54.32c-81.03,32.47 -160.59,67.89 -242.17,98.59l0 0 -0.2 0 -22.03 8.11 -18.25 6.78 -0.03 0.12 -2.39 0.86 0 0 1.46 -5.89 -1.51 5.88 -246.64 91.1c-89.08,32.21 -180.02,60.49 -269.85,90.86 -44.92,14.62 -89.83,30.48 -135.11,44.24l-136.61 40.82 -332.72 95.04 0 0c0,0 0,0 0,0l-398.62 99.92 -0.03 0.09 -1.74 0.48 0 0 0.5 -3.07 -0.83 3.11 -92.34 21.6c-91.25,21.72 -184.68,39.1 -278.11,58.92 -55.4,11.24 -111.9,22.1 -168.39,32.58l0 0 0.01 -0.03c-57.2,10.71 -115.38,21.31 -172.9,31.23 -118.81,18.96 -234.75,36.07 -347.3,51.51 112.58,-15.43 228.6,-32.52 347.52,-51.45 -234.37,40.62 -469.62,74.99 -705.74,103.2l-0.13 0c-25.29,2.96 -50.4,5.92 -75.68,8.81 -121.06,13.74 -242.28,25.83 -363.5,36.32l-0.01 0.03c-43.38,3.76 -87.28,7.29 -130.66,10.62l0 0.01 -0.07 0 -2.13 0.15 -0.12 0.01c-3.76,0.32 -7.52,0.58 -11.29,0.87l0 0 0.09 -0.09 -0.17 0.14 0.36 -0.45 -0.53 0.46c-173.82,13.03 -347.64,23 -521.46,29.77l0.04 -0.04c-34.52,1.34 -69.07,2.54 -103.6,3.63 -137.23,4.65 -274.07,7.16 -411.29,7.16zm1053.56 -54.27l-1.41 5.36 0.12 -0.02 1.44 -5.46 -0.15 0.12zm8.92 -8.47l0.02 0 0.19 -0.14 -0.21 0.14zm511.52 -34.75l36.24 0.05c-12.05,-0.04 -24.18,-0.05 -36.24,-0.05zm2813.29 -726.15c35.17,0.07 70.2,0.1 105.27,0.11 -35.08,-0.05 -70.31,-0.11 -105.27,-0.11zm2407.18 -1198.84l0 0.01 2.19 -2.19 -2.19 2.18z"/>
   <path class="fil4" d="M8300.28 1443.12c-53.5,-14.96 -103.06,-39.54 -146.07,-71.99l58.74 -55.26 1.05 -0.76c26.23,18.25 55.33,32.95 86.28,43.6l0 0c36.45,12.67 75.26,19.52 115.91,19.52 88.37,0 168.88,-32.19 231.29,-85.42 0,33.46 0,66.41 0,99.87 -67.13,41.82 -146.33,65.9 -231.29,65.9 -40.12,0 -78.94,-5.32 -115.91,-15.46l0 0zm346.94 -691.22c-62.15,-53.23 -142.92,-85.17 -231.03,-85.17 -40.65,0 -79.98,6.84 -116.17,19.26 0,-27.88 0,-56.02 0,-84.15 36.97,-10.14 76.05,-15.72 116.17,-15.72 84.96,0 164.16,24.08 231.03,66.16l0 0c123.26,77.06 205.34,214.19 205.34,370.07 0,156.14 -82.08,293.02 -205.08,370.07 0,-32.95 0,-66.15 0,-99.36 76.32,-65.4 124.57,-162.22 124.57,-270.71 0,-108.23 -48.25,-205.31 -124.83,-270.45l0 0zm-602.1 499.84c-41.17,-66.66 -65.04,-145.24 -65.04,-229.39 0,-200.5 135.32,-369.56 319.67,-420.51 0,28.13 0,56.27 0,84.15 -139.25,48.42 -239.16,180.73 -239.16,336.36 0,62.36 16,121.16 44.06,172.11 -19.67,19.01 -39.6,38.27 -59.53,57.28l0 0z"/>
  </g>
 </g>
</svg>
